<mxfile host="app.diagrams.net" modified="2023-07-30T18:43:19.415Z" agent="Mozilla/5.0 (Windows NT 10.0; Win64; x64) AppleWebKit/537.36 (KHTML, like Gecko) Chrome/115.0.0.0 Safari/537.36 Edg/115.0.1901.188" etag="Xx5jylW8qU2qBUX7o1Bw" version="21.6.6" type="device">
  <diagram id="Gi5_93j05Tq5kSE1P_lF" name="Page-2">
    <mxGraphModel dx="1055" dy="622" grid="1" gridSize="10" guides="1" tooltips="1" connect="1" arrows="1" fold="1" page="1" pageScale="1" pageWidth="850" pageHeight="1100" math="0" shadow="0">
      <root>
        <mxCell id="0" />
        <mxCell id="1" parent="0" />
        <mxCell id="ZZxpTI72Ch4nWyN-9ozh-1" value="Backend" style="shape=umlLifeline;perimeter=lifelinePerimeter;whiteSpace=wrap;html=1;container=0;collapsible=0;recursiveResize=0;outlineConnect=0;rounded=1;shadow=0;comic=0;labelBackgroundColor=none;strokeWidth=1;fontFamily=Verdana;fontSize=12;align=center;" parent="1" vertex="1">
          <mxGeometry x="620" y="90" width="100" height="930" as="geometry" />
        </mxCell>
        <mxCell id="ZZxpTI72Ch4nWyN-9ozh-6" value="Base de datos" style="shape=umlLifeline;perimeter=lifelinePerimeter;whiteSpace=wrap;html=1;container=0;collapsible=0;recursiveResize=0;outlineConnect=0;rounded=1;shadow=0;comic=0;labelBackgroundColor=none;strokeWidth=1;fontFamily=Verdana;fontSize=12;align=center;" parent="1" vertex="1">
          <mxGeometry x="820" y="90" width="100" height="930" as="geometry" />
        </mxCell>
        <mxCell id="ZZxpTI72Ch4nWyN-9ozh-11" value="Entrenador" style="shape=umlLifeline;perimeter=lifelinePerimeter;whiteSpace=wrap;html=1;container=0;collapsible=0;recursiveResize=0;outlineConnect=0;rounded=1;shadow=0;comic=0;labelBackgroundColor=none;strokeWidth=1;fontFamily=Verdana;fontSize=12;align=center;" parent="1" vertex="1">
          <mxGeometry x="230" y="90" width="120" height="930" as="geometry" />
        </mxCell>
        <mxCell id="ZZxpTI72Ch4nWyN-9ozh-21" value="Frontend" style="shape=umlLifeline;perimeter=lifelinePerimeter;whiteSpace=wrap;html=1;container=0;collapsible=0;recursiveResize=0;outlineConnect=0;rounded=1;shadow=0;comic=0;labelBackgroundColor=none;strokeWidth=1;fontFamily=Verdana;fontSize=12;align=center;" parent="1" vertex="1">
          <mxGeometry x="435.13" y="90" width="100" height="930" as="geometry" />
        </mxCell>
        <mxCell id="ZZxpTI72Ch4nWyN-9ozh-12" value="" style="html=1;points=[];perimeter=orthogonalPerimeter;rounded=0;shadow=0;comic=0;labelBackgroundColor=none;strokeWidth=1;fontFamily=Verdana;fontSize=12;align=center;" parent="1" vertex="1">
          <mxGeometry x="285" y="180" width="10" height="820" as="geometry" />
        </mxCell>
        <mxCell id="mXo3GQkAn6UmXGM8vVlt-14" style="edgeStyle=orthogonalEdgeStyle;rounded=0;orthogonalLoop=1;jettySize=auto;html=1;" parent="1" source="UpYW0VXzlztQtEfswIcR-47" target="UpYW0VXzlztQtEfswIcR-48" edge="1">
          <mxGeometry relative="1" as="geometry">
            <Array as="points">
              <mxPoint x="770" y="270" />
              <mxPoint x="770" y="270" />
            </Array>
          </mxGeometry>
        </mxCell>
        <mxCell id="mXo3GQkAn6UmXGM8vVlt-15" value="Consultar esgrimistas" style="edgeLabel;html=1;align=center;verticalAlign=middle;resizable=0;points=[];" parent="mXo3GQkAn6UmXGM8vVlt-14" vertex="1" connectable="0">
          <mxGeometry x="-0.0632" relative="1" as="geometry">
            <mxPoint x="6" y="-11" as="offset" />
          </mxGeometry>
        </mxCell>
        <mxCell id="mXo3GQkAn6UmXGM8vVlt-18" style="edgeStyle=orthogonalEdgeStyle;rounded=0;orthogonalLoop=1;jettySize=auto;html=1;dashed=1;" parent="1" source="UpYW0VXzlztQtEfswIcR-47" target="UpYW0VXzlztQtEfswIcR-55" edge="1">
          <mxGeometry relative="1" as="geometry">
            <Array as="points">
              <mxPoint x="610" y="340" />
              <mxPoint x="610" y="340" />
            </Array>
          </mxGeometry>
        </mxCell>
        <mxCell id="mXo3GQkAn6UmXGM8vVlt-19" value="Enviar respuesta con &lt;br&gt;esgrimistas en formato JSON" style="edgeLabel;html=1;align=center;verticalAlign=middle;resizable=0;points=[];" parent="mXo3GQkAn6UmXGM8vVlt-18" vertex="1" connectable="0">
          <mxGeometry x="-0.0183" y="1" relative="1" as="geometry">
            <mxPoint y="-21" as="offset" />
          </mxGeometry>
        </mxCell>
        <mxCell id="UpYW0VXzlztQtEfswIcR-47" value="" style="html=1;points=[];perimeter=orthogonalPerimeter;rounded=0;shadow=0;comic=0;labelBackgroundColor=none;strokeWidth=1;fontFamily=Verdana;fontSize=12;align=center;" parent="1" vertex="1">
          <mxGeometry x="665" y="230" width="10" height="110" as="geometry" />
        </mxCell>
        <mxCell id="mXo3GQkAn6UmXGM8vVlt-16" style="edgeStyle=orthogonalEdgeStyle;rounded=0;orthogonalLoop=1;jettySize=auto;html=1;dashed=1;" parent="1" source="UpYW0VXzlztQtEfswIcR-48" target="UpYW0VXzlztQtEfswIcR-47" edge="1">
          <mxGeometry relative="1" as="geometry">
            <Array as="points">
              <mxPoint x="820" y="320" />
              <mxPoint x="820" y="320" />
            </Array>
          </mxGeometry>
        </mxCell>
        <mxCell id="mXo3GQkAn6UmXGM8vVlt-17" value="Encontrar esgrimistas" style="edgeLabel;html=1;align=center;verticalAlign=middle;resizable=0;points=[];" parent="mXo3GQkAn6UmXGM8vVlt-16" vertex="1" connectable="0">
          <mxGeometry x="-0.0211" y="3" relative="1" as="geometry">
            <mxPoint y="-13" as="offset" />
          </mxGeometry>
        </mxCell>
        <mxCell id="UpYW0VXzlztQtEfswIcR-48" value="" style="html=1;points=[];perimeter=orthogonalPerimeter;rounded=0;shadow=0;comic=0;labelBackgroundColor=none;strokeWidth=1;fontFamily=Verdana;fontSize=12;align=center;" parent="1" vertex="1">
          <mxGeometry x="865" y="270" width="10" height="50" as="geometry" />
        </mxCell>
        <mxCell id="UpYW0VXzlztQtEfswIcR-49" value="Ingresar a &quot;Esgrimistas&quot;" style="html=1;verticalAlign=bottom;endArrow=block;entryX=0;entryY=0;labelBackgroundColor=none;fontFamily=Verdana;fontSize=11;edgeStyle=elbowEdgeStyle;elbow=vertical;" parent="1" target="UpYW0VXzlztQtEfswIcR-55" edge="1">
          <mxGeometry x="-0.0061" relative="1" as="geometry">
            <mxPoint x="295" y="187" as="sourcePoint" />
            <mxPoint as="offset" />
          </mxGeometry>
        </mxCell>
        <mxCell id="mXo3GQkAn6UmXGM8vVlt-9" style="edgeStyle=orthogonalEdgeStyle;rounded=0;orthogonalLoop=1;jettySize=auto;html=1;" parent="1" source="UpYW0VXzlztQtEfswIcR-55" target="UpYW0VXzlztQtEfswIcR-47" edge="1">
          <mxGeometry relative="1" as="geometry">
            <Array as="points">
              <mxPoint x="580" y="230" />
              <mxPoint x="580" y="230" />
            </Array>
          </mxGeometry>
        </mxCell>
        <mxCell id="mXo3GQkAn6UmXGM8vVlt-12" value="GET request a /fencer" style="edgeLabel;html=1;align=center;verticalAlign=middle;resizable=0;points=[];" parent="mXo3GQkAn6UmXGM8vVlt-9" vertex="1" connectable="0">
          <mxGeometry x="0.1308" y="1" relative="1" as="geometry">
            <mxPoint x="-9" y="-9" as="offset" />
          </mxGeometry>
        </mxCell>
        <mxCell id="mXo3GQkAn6UmXGM8vVlt-20" style="edgeStyle=orthogonalEdgeStyle;rounded=0;orthogonalLoop=1;jettySize=auto;html=1;entryX=1.025;entryY=0.219;entryDx=0;entryDy=0;entryPerimeter=0;dashed=1;" parent="1" source="UpYW0VXzlztQtEfswIcR-55" target="ZZxpTI72Ch4nWyN-9ozh-12" edge="1">
          <mxGeometry relative="1" as="geometry">
            <Array as="points">
              <mxPoint x="400" y="360" />
            </Array>
            <mxPoint x="300" y="360" as="targetPoint" />
          </mxGeometry>
        </mxCell>
        <mxCell id="mXo3GQkAn6UmXGM8vVlt-21" value="Mostrar esgrimistas disponibles" style="edgeLabel;html=1;align=center;verticalAlign=middle;resizable=0;points=[];" parent="mXo3GQkAn6UmXGM8vVlt-20" vertex="1" connectable="0">
          <mxGeometry x="0.2258" y="3" relative="1" as="geometry">
            <mxPoint x="19" y="-23" as="offset" />
          </mxGeometry>
        </mxCell>
        <mxCell id="UpYW0VXzlztQtEfswIcR-55" value="" style="html=1;points=[];perimeter=orthogonalPerimeter;rounded=0;shadow=0;comic=0;labelBackgroundColor=none;strokeWidth=1;fontFamily=Verdana;fontSize=12;align=center;" parent="1" vertex="1">
          <mxGeometry x="480.13" y="187" width="10" height="173" as="geometry" />
        </mxCell>
        <mxCell id="18j1XGoCvIrTiXG_NGVG-17" style="edgeStyle=orthogonalEdgeStyle;rounded=0;orthogonalLoop=1;jettySize=auto;html=1;" parent="1" source="18j1XGoCvIrTiXG_NGVG-21" target="18j1XGoCvIrTiXG_NGVG-24" edge="1">
          <mxGeometry relative="1" as="geometry">
            <Array as="points">
              <mxPoint x="770" y="480" />
              <mxPoint x="770" y="480" />
            </Array>
          </mxGeometry>
        </mxCell>
        <mxCell id="18j1XGoCvIrTiXG_NGVG-18" value="Consultar esgrimista" style="edgeLabel;html=1;align=center;verticalAlign=middle;resizable=0;points=[];" parent="18j1XGoCvIrTiXG_NGVG-17" vertex="1" connectable="0">
          <mxGeometry x="-0.0632" relative="1" as="geometry">
            <mxPoint x="6" y="-11" as="offset" />
          </mxGeometry>
        </mxCell>
        <mxCell id="18j1XGoCvIrTiXG_NGVG-19" style="edgeStyle=orthogonalEdgeStyle;rounded=0;orthogonalLoop=1;jettySize=auto;html=1;dashed=1;" parent="1" source="18j1XGoCvIrTiXG_NGVG-21" target="18j1XGoCvIrTiXG_NGVG-30" edge="1">
          <mxGeometry relative="1" as="geometry">
            <Array as="points">
              <mxPoint x="610" y="550" />
              <mxPoint x="610" y="550" />
            </Array>
          </mxGeometry>
        </mxCell>
        <mxCell id="18j1XGoCvIrTiXG_NGVG-20" value="Enviar respuesta con&lt;br style=&quot;border-color: var(--border-color);&quot;&gt;esgrimista en formato JSON" style="edgeLabel;html=1;align=center;verticalAlign=middle;resizable=0;points=[];" parent="18j1XGoCvIrTiXG_NGVG-19" vertex="1" connectable="0">
          <mxGeometry x="-0.0183" y="1" relative="1" as="geometry">
            <mxPoint y="-21" as="offset" />
          </mxGeometry>
        </mxCell>
        <mxCell id="18j1XGoCvIrTiXG_NGVG-21" value="" style="html=1;points=[];perimeter=orthogonalPerimeter;rounded=0;shadow=0;comic=0;labelBackgroundColor=none;strokeWidth=1;fontFamily=Verdana;fontSize=12;align=center;" parent="1" vertex="1">
          <mxGeometry x="665" y="440" width="10" height="110" as="geometry" />
        </mxCell>
        <mxCell id="18j1XGoCvIrTiXG_NGVG-22" style="edgeStyle=orthogonalEdgeStyle;rounded=0;orthogonalLoop=1;jettySize=auto;html=1;dashed=1;" parent="1" source="18j1XGoCvIrTiXG_NGVG-24" target="18j1XGoCvIrTiXG_NGVG-21" edge="1">
          <mxGeometry relative="1" as="geometry">
            <Array as="points">
              <mxPoint x="820" y="530" />
              <mxPoint x="820" y="530" />
            </Array>
          </mxGeometry>
        </mxCell>
        <mxCell id="18j1XGoCvIrTiXG_NGVG-23" value="Encontrar esgrimista" style="edgeLabel;html=1;align=center;verticalAlign=middle;resizable=0;points=[];" parent="18j1XGoCvIrTiXG_NGVG-22" vertex="1" connectable="0">
          <mxGeometry x="-0.0211" y="3" relative="1" as="geometry">
            <mxPoint y="-13" as="offset" />
          </mxGeometry>
        </mxCell>
        <mxCell id="18j1XGoCvIrTiXG_NGVG-24" value="" style="html=1;points=[];perimeter=orthogonalPerimeter;rounded=0;shadow=0;comic=0;labelBackgroundColor=none;strokeWidth=1;fontFamily=Verdana;fontSize=12;align=center;" parent="1" vertex="1">
          <mxGeometry x="865" y="480" width="10" height="50" as="geometry" />
        </mxCell>
        <mxCell id="18j1XGoCvIrTiXG_NGVG-25" value="Seleccionar un esgrimista" style="html=1;verticalAlign=bottom;endArrow=block;entryX=0;entryY=0;labelBackgroundColor=none;fontFamily=Verdana;fontSize=11;edgeStyle=elbowEdgeStyle;elbow=vertical;exitX=1.011;exitY=0.266;exitDx=0;exitDy=0;exitPerimeter=0;" parent="1" target="18j1XGoCvIrTiXG_NGVG-30" edge="1" source="ZZxpTI72Ch4nWyN-9ozh-12">
          <mxGeometry x="-0.0061" relative="1" as="geometry">
            <mxPoint x="300" y="400" as="sourcePoint" />
            <mxPoint as="offset" />
          </mxGeometry>
        </mxCell>
        <mxCell id="18j1XGoCvIrTiXG_NGVG-26" style="edgeStyle=orthogonalEdgeStyle;rounded=0;orthogonalLoop=1;jettySize=auto;html=1;" parent="1" source="18j1XGoCvIrTiXG_NGVG-30" target="18j1XGoCvIrTiXG_NGVG-21" edge="1">
          <mxGeometry relative="1" as="geometry">
            <Array as="points">
              <mxPoint x="580" y="440" />
              <mxPoint x="580" y="440" />
            </Array>
          </mxGeometry>
        </mxCell>
        <mxCell id="18j1XGoCvIrTiXG_NGVG-27" value="GET request a /fencer/:id" style="edgeLabel;html=1;align=center;verticalAlign=middle;resizable=0;points=[];" parent="18j1XGoCvIrTiXG_NGVG-26" vertex="1" connectable="0">
          <mxGeometry x="0.1308" y="1" relative="1" as="geometry">
            <mxPoint x="-9" y="-9" as="offset" />
          </mxGeometry>
        </mxCell>
        <mxCell id="18j1XGoCvIrTiXG_NGVG-28" style="edgeStyle=orthogonalEdgeStyle;rounded=0;orthogonalLoop=1;jettySize=auto;html=1;entryX=1.027;entryY=0.476;entryDx=0;entryDy=0;entryPerimeter=0;exitX=0.024;exitY=0.998;exitDx=0;exitDy=0;exitPerimeter=0;dashed=1;" parent="1" source="18j1XGoCvIrTiXG_NGVG-30" target="ZZxpTI72Ch4nWyN-9ozh-12" edge="1">
          <mxGeometry relative="1" as="geometry">
            <Array as="points">
              <mxPoint x="400" y="570" />
            </Array>
            <mxPoint x="300" y="570" as="targetPoint" />
          </mxGeometry>
        </mxCell>
        <mxCell id="18j1XGoCvIrTiXG_NGVG-29" value="Mostrar detalle del esgrimista" style="edgeLabel;html=1;align=center;verticalAlign=middle;resizable=0;points=[];" parent="18j1XGoCvIrTiXG_NGVG-28" vertex="1" connectable="0">
          <mxGeometry x="0.2258" y="3" relative="1" as="geometry">
            <mxPoint x="19" y="-23" as="offset" />
          </mxGeometry>
        </mxCell>
        <mxCell id="18j1XGoCvIrTiXG_NGVG-30" value="" style="html=1;points=[];perimeter=orthogonalPerimeter;rounded=0;shadow=0;comic=0;labelBackgroundColor=none;strokeWidth=1;fontFamily=Verdana;fontSize=12;align=center;" parent="1" vertex="1">
          <mxGeometry x="480.13" y="397" width="10" height="173" as="geometry" />
        </mxCell>
        <mxCell id="18j1XGoCvIrTiXG_NGVG-32" style="edgeStyle=orthogonalEdgeStyle;rounded=0;orthogonalLoop=1;jettySize=auto;html=1;" parent="1" source="18j1XGoCvIrTiXG_NGVG-36" target="18j1XGoCvIrTiXG_NGVG-39" edge="1">
          <mxGeometry relative="1" as="geometry">
            <Array as="points">
              <mxPoint x="770" y="690" />
              <mxPoint x="770" y="690" />
            </Array>
          </mxGeometry>
        </mxCell>
        <mxCell id="18j1XGoCvIrTiXG_NGVG-33" value="Consultar entrenamientos" style="edgeLabel;html=1;align=center;verticalAlign=middle;resizable=0;points=[];" parent="18j1XGoCvIrTiXG_NGVG-32" vertex="1" connectable="0">
          <mxGeometry x="-0.0632" relative="1" as="geometry">
            <mxPoint x="6" y="-11" as="offset" />
          </mxGeometry>
        </mxCell>
        <mxCell id="18j1XGoCvIrTiXG_NGVG-34" style="edgeStyle=orthogonalEdgeStyle;rounded=0;orthogonalLoop=1;jettySize=auto;html=1;dashed=1;" parent="1" source="18j1XGoCvIrTiXG_NGVG-36" target="18j1XGoCvIrTiXG_NGVG-45" edge="1">
          <mxGeometry relative="1" as="geometry">
            <Array as="points">
              <mxPoint x="610" y="760" />
              <mxPoint x="610" y="760" />
            </Array>
          </mxGeometry>
        </mxCell>
        <mxCell id="18j1XGoCvIrTiXG_NGVG-35" value="Enviar respuesta con&lt;br style=&quot;border-color: var(--border-color);&quot;&gt;entrenamientos en&lt;br style=&quot;border-color: var(--border-color);&quot;&gt;formato JSON" style="edgeLabel;html=1;align=center;verticalAlign=middle;resizable=0;points=[];" parent="18j1XGoCvIrTiXG_NGVG-34" vertex="1" connectable="0">
          <mxGeometry x="-0.0183" y="1" relative="1" as="geometry">
            <mxPoint y="-31" as="offset" />
          </mxGeometry>
        </mxCell>
        <mxCell id="18j1XGoCvIrTiXG_NGVG-36" value="" style="html=1;points=[];perimeter=orthogonalPerimeter;rounded=0;shadow=0;comic=0;labelBackgroundColor=none;strokeWidth=1;fontFamily=Verdana;fontSize=12;align=center;" parent="1" vertex="1">
          <mxGeometry x="665" y="650" width="10" height="110" as="geometry" />
        </mxCell>
        <mxCell id="18j1XGoCvIrTiXG_NGVG-37" style="edgeStyle=orthogonalEdgeStyle;rounded=0;orthogonalLoop=1;jettySize=auto;html=1;dashed=1;" parent="1" source="18j1XGoCvIrTiXG_NGVG-39" target="18j1XGoCvIrTiXG_NGVG-36" edge="1">
          <mxGeometry relative="1" as="geometry">
            <Array as="points">
              <mxPoint x="820" y="740" />
              <mxPoint x="820" y="740" />
            </Array>
          </mxGeometry>
        </mxCell>
        <mxCell id="18j1XGoCvIrTiXG_NGVG-38" value="Encontrar entrenamientos" style="edgeLabel;html=1;align=center;verticalAlign=middle;resizable=0;points=[];" parent="18j1XGoCvIrTiXG_NGVG-37" vertex="1" connectable="0">
          <mxGeometry x="-0.0211" y="3" relative="1" as="geometry">
            <mxPoint y="-13" as="offset" />
          </mxGeometry>
        </mxCell>
        <mxCell id="18j1XGoCvIrTiXG_NGVG-39" value="" style="html=1;points=[];perimeter=orthogonalPerimeter;rounded=0;shadow=0;comic=0;labelBackgroundColor=none;strokeWidth=1;fontFamily=Verdana;fontSize=12;align=center;" parent="1" vertex="1">
          <mxGeometry x="865" y="690" width="10" height="50" as="geometry" />
        </mxCell>
        <mxCell id="18j1XGoCvIrTiXG_NGVG-40" value="Navegar a &quot;Entrenamientos IA&quot;" style="html=1;verticalAlign=bottom;endArrow=block;entryX=0;entryY=0;labelBackgroundColor=none;fontFamily=Verdana;fontSize=11;edgeStyle=elbowEdgeStyle;elbow=vertical;exitX=1.008;exitY=0.521;exitDx=0;exitDy=0;exitPerimeter=0;" parent="1" target="18j1XGoCvIrTiXG_NGVG-45" edge="1" source="ZZxpTI72Ch4nWyN-9ozh-12">
          <mxGeometry x="-0.0061" relative="1" as="geometry">
            <mxPoint x="300" y="607" as="sourcePoint" />
            <mxPoint as="offset" />
          </mxGeometry>
        </mxCell>
        <mxCell id="18j1XGoCvIrTiXG_NGVG-41" style="edgeStyle=orthogonalEdgeStyle;rounded=0;orthogonalLoop=1;jettySize=auto;html=1;" parent="1" source="18j1XGoCvIrTiXG_NGVG-45" target="18j1XGoCvIrTiXG_NGVG-36" edge="1">
          <mxGeometry relative="1" as="geometry">
            <Array as="points">
              <mxPoint x="580" y="650" />
              <mxPoint x="580" y="650" />
            </Array>
          </mxGeometry>
        </mxCell>
        <mxCell id="18j1XGoCvIrTiXG_NGVG-42" value="GET request a /fencer/aitraining/:id" style="edgeLabel;html=1;align=center;verticalAlign=middle;resizable=0;points=[];" parent="18j1XGoCvIrTiXG_NGVG-41" vertex="1" connectable="0">
          <mxGeometry x="0.1308" y="1" relative="1" as="geometry">
            <mxPoint x="-9" y="-9" as="offset" />
          </mxGeometry>
        </mxCell>
        <mxCell id="18j1XGoCvIrTiXG_NGVG-43" style="edgeStyle=orthogonalEdgeStyle;rounded=0;orthogonalLoop=1;jettySize=auto;html=1;entryX=1.008;entryY=0.731;entryDx=0;entryDy=0;entryPerimeter=0;dashed=1;" parent="1" source="18j1XGoCvIrTiXG_NGVG-45" target="ZZxpTI72Ch4nWyN-9ozh-12" edge="1">
          <mxGeometry relative="1" as="geometry">
            <Array as="points">
              <mxPoint x="400" y="780" />
            </Array>
            <mxPoint x="300" y="780" as="targetPoint" />
          </mxGeometry>
        </mxCell>
        <mxCell id="18j1XGoCvIrTiXG_NGVG-44" value="Mostrar entrenamientos" style="edgeLabel;html=1;align=center;verticalAlign=middle;resizable=0;points=[];" parent="18j1XGoCvIrTiXG_NGVG-43" vertex="1" connectable="0">
          <mxGeometry x="0.2258" y="3" relative="1" as="geometry">
            <mxPoint x="19" y="-23" as="offset" />
          </mxGeometry>
        </mxCell>
        <mxCell id="18j1XGoCvIrTiXG_NGVG-45" value="" style="html=1;points=[];perimeter=orthogonalPerimeter;rounded=0;shadow=0;comic=0;labelBackgroundColor=none;strokeWidth=1;fontFamily=Verdana;fontSize=12;align=center;" parent="1" vertex="1">
          <mxGeometry x="480.13" y="607" width="10" height="173" as="geometry" />
        </mxCell>
        <mxCell id="18j1XGoCvIrTiXG_NGVG-48" style="edgeStyle=orthogonalEdgeStyle;rounded=0;orthogonalLoop=1;jettySize=auto;html=1;" parent="1" source="18j1XGoCvIrTiXG_NGVG-52" target="18j1XGoCvIrTiXG_NGVG-55" edge="1">
          <mxGeometry relative="1" as="geometry">
            <Array as="points">
              <mxPoint x="770" y="900" />
              <mxPoint x="770" y="900" />
            </Array>
          </mxGeometry>
        </mxCell>
        <mxCell id="18j1XGoCvIrTiXG_NGVG-49" value="Consultar detalle de entrenamiento" style="edgeLabel;html=1;align=center;verticalAlign=middle;resizable=0;points=[];" parent="18j1XGoCvIrTiXG_NGVG-48" vertex="1" connectable="0">
          <mxGeometry x="-0.0632" relative="1" as="geometry">
            <mxPoint x="6" y="-11" as="offset" />
          </mxGeometry>
        </mxCell>
        <mxCell id="18j1XGoCvIrTiXG_NGVG-50" style="edgeStyle=orthogonalEdgeStyle;rounded=0;orthogonalLoop=1;jettySize=auto;html=1;dashed=1;" parent="1" source="18j1XGoCvIrTiXG_NGVG-52" target="18j1XGoCvIrTiXG_NGVG-61" edge="1">
          <mxGeometry relative="1" as="geometry">
            <Array as="points">
              <mxPoint x="610" y="970" />
              <mxPoint x="610" y="970" />
            </Array>
          </mxGeometry>
        </mxCell>
        <mxCell id="18j1XGoCvIrTiXG_NGVG-51" value="Enviar respuesta con&lt;br style=&quot;border-color: var(--border-color);&quot;&gt;entrenamiento en&lt;br style=&quot;border-color: var(--border-color);&quot;&gt;formato JSON" style="edgeLabel;html=1;align=center;verticalAlign=middle;resizable=0;points=[];" parent="18j1XGoCvIrTiXG_NGVG-50" vertex="1" connectable="0">
          <mxGeometry x="-0.0183" y="1" relative="1" as="geometry">
            <mxPoint y="-31" as="offset" />
          </mxGeometry>
        </mxCell>
        <mxCell id="18j1XGoCvIrTiXG_NGVG-52" value="" style="html=1;points=[];perimeter=orthogonalPerimeter;rounded=0;shadow=0;comic=0;labelBackgroundColor=none;strokeWidth=1;fontFamily=Verdana;fontSize=12;align=center;" parent="1" vertex="1">
          <mxGeometry x="665" y="860" width="10" height="110" as="geometry" />
        </mxCell>
        <mxCell id="18j1XGoCvIrTiXG_NGVG-53" style="edgeStyle=orthogonalEdgeStyle;rounded=0;orthogonalLoop=1;jettySize=auto;html=1;dashed=1;" parent="1" source="18j1XGoCvIrTiXG_NGVG-55" target="18j1XGoCvIrTiXG_NGVG-52" edge="1">
          <mxGeometry relative="1" as="geometry">
            <Array as="points">
              <mxPoint x="820" y="950" />
              <mxPoint x="820" y="950" />
            </Array>
          </mxGeometry>
        </mxCell>
        <mxCell id="18j1XGoCvIrTiXG_NGVG-54" value="Encontrar entrenamiento" style="edgeLabel;html=1;align=center;verticalAlign=middle;resizable=0;points=[];" parent="18j1XGoCvIrTiXG_NGVG-53" vertex="1" connectable="0">
          <mxGeometry x="-0.0211" y="3" relative="1" as="geometry">
            <mxPoint y="-13" as="offset" />
          </mxGeometry>
        </mxCell>
        <mxCell id="18j1XGoCvIrTiXG_NGVG-55" value="" style="html=1;points=[];perimeter=orthogonalPerimeter;rounded=0;shadow=0;comic=0;labelBackgroundColor=none;strokeWidth=1;fontFamily=Verdana;fontSize=12;align=center;" parent="1" vertex="1">
          <mxGeometry x="865" y="900" width="10" height="50" as="geometry" />
        </mxCell>
        <mxCell id="18j1XGoCvIrTiXG_NGVG-56" value="Seleccionar un enternamiento" style="html=1;verticalAlign=bottom;endArrow=block;entryX=0;entryY=0;labelBackgroundColor=none;fontFamily=Verdana;fontSize=11;edgeStyle=elbowEdgeStyle;elbow=vertical;exitX=1.027;exitY=0.779;exitDx=0;exitDy=0;exitPerimeter=0;" parent="1" target="18j1XGoCvIrTiXG_NGVG-61" edge="1" source="ZZxpTI72Ch4nWyN-9ozh-12">
          <mxGeometry x="-0.0061" relative="1" as="geometry">
            <mxPoint x="300" y="820" as="sourcePoint" />
            <mxPoint as="offset" />
          </mxGeometry>
        </mxCell>
        <mxCell id="18j1XGoCvIrTiXG_NGVG-57" style="edgeStyle=orthogonalEdgeStyle;rounded=0;orthogonalLoop=1;jettySize=auto;html=1;" parent="1" source="18j1XGoCvIrTiXG_NGVG-61" target="18j1XGoCvIrTiXG_NGVG-52" edge="1">
          <mxGeometry relative="1" as="geometry">
            <Array as="points">
              <mxPoint x="580" y="860" />
              <mxPoint x="580" y="860" />
            </Array>
          </mxGeometry>
        </mxCell>
        <mxCell id="18j1XGoCvIrTiXG_NGVG-58" value="GET request a /aitraining/:id" style="edgeLabel;html=1;align=center;verticalAlign=middle;resizable=0;points=[];" parent="18j1XGoCvIrTiXG_NGVG-57" vertex="1" connectable="0">
          <mxGeometry x="0.1308" y="1" relative="1" as="geometry">
            <mxPoint x="-9" y="-9" as="offset" />
          </mxGeometry>
        </mxCell>
        <mxCell id="18j1XGoCvIrTiXG_NGVG-59" style="edgeStyle=orthogonalEdgeStyle;rounded=0;orthogonalLoop=1;jettySize=auto;html=1;entryX=1.046;entryY=0.987;entryDx=0;entryDy=0;entryPerimeter=0;dashed=1;" parent="1" source="18j1XGoCvIrTiXG_NGVG-61" target="ZZxpTI72Ch4nWyN-9ozh-12" edge="1">
          <mxGeometry relative="1" as="geometry">
            <Array as="points">
              <mxPoint x="400" y="990" />
            </Array>
            <mxPoint x="310" y="990" as="targetPoint" />
          </mxGeometry>
        </mxCell>
        <mxCell id="18j1XGoCvIrTiXG_NGVG-60" value="Mostrar detalle del entrenamiento" style="edgeLabel;html=1;align=center;verticalAlign=middle;resizable=0;points=[];" parent="18j1XGoCvIrTiXG_NGVG-59" vertex="1" connectable="0">
          <mxGeometry x="0.2258" y="3" relative="1" as="geometry">
            <mxPoint x="19" y="-23" as="offset" />
          </mxGeometry>
        </mxCell>
        <mxCell id="18j1XGoCvIrTiXG_NGVG-61" value="" style="html=1;points=[];perimeter=orthogonalPerimeter;rounded=0;shadow=0;comic=0;labelBackgroundColor=none;strokeWidth=1;fontFamily=Verdana;fontSize=12;align=center;" parent="1" vertex="1">
          <mxGeometry x="480.13" y="817" width="10" height="173" as="geometry" />
        </mxCell>
        <mxCell id="S5m8VR_HZ--lrlstfprA-1" value="Entrenador" style="swimlane;whiteSpace=wrap;html=1;" parent="1" vertex="1">
          <mxGeometry x="1080" y="180" width="195" height="580" as="geometry" />
        </mxCell>
        <mxCell id="18j1XGoCvIrTiXG_NGVG-65" value="Seleccionar un esgrimista" style="rounded=1;whiteSpace=wrap;html=1;" parent="S5m8VR_HZ--lrlstfprA-1" vertex="1">
          <mxGeometry x="37.5" y="220" width="120" height="60" as="geometry" />
        </mxCell>
        <mxCell id="18j1XGoCvIrTiXG_NGVG-67" value="Navegar a &quot;Entrenamientos IA&quot;" style="rounded=1;whiteSpace=wrap;html=1;" parent="S5m8VR_HZ--lrlstfprA-1" vertex="1">
          <mxGeometry x="37.5" y="320" width="120" height="60" as="geometry" />
        </mxCell>
        <mxCell id="18j1XGoCvIrTiXG_NGVG-69" value="Seleccionar un enternamiento" style="rounded=1;whiteSpace=wrap;html=1;" parent="S5m8VR_HZ--lrlstfprA-1" vertex="1">
          <mxGeometry x="37.5" y="420" width="120" height="60" as="geometry" />
        </mxCell>
        <mxCell id="18j1XGoCvIrTiXG_NGVG-85" value="" style="ellipse;whiteSpace=wrap;html=1;aspect=fixed;fillColor=#000000;" parent="S5m8VR_HZ--lrlstfprA-1" vertex="1">
          <mxGeometry x="87.5" y="50" width="20" height="20" as="geometry" />
        </mxCell>
        <mxCell id="18j1XGoCvIrTiXG_NGVG-63" value="Navegar a &quot;Esgrimistas&quot;" style="rounded=1;whiteSpace=wrap;html=1;" parent="S5m8VR_HZ--lrlstfprA-1" vertex="1">
          <mxGeometry x="37.5" y="120" width="120" height="60" as="geometry" />
        </mxCell>
        <mxCell id="S5m8VR_HZ--lrlstfprA-4" value="" style="edgeStyle=orthogonalEdgeStyle;rounded=0;orthogonalLoop=1;jettySize=auto;html=1;" parent="S5m8VR_HZ--lrlstfprA-1" source="18j1XGoCvIrTiXG_NGVG-85" target="18j1XGoCvIrTiXG_NGVG-63" edge="1">
          <mxGeometry relative="1" as="geometry" />
        </mxCell>
        <mxCell id="ePJA7sKkPswgZLmJT1RE-1" value="App web" style="swimlane;whiteSpace=wrap;html=1;" parent="1" vertex="1">
          <mxGeometry x="1275" y="180" width="200" height="580" as="geometry" />
        </mxCell>
        <mxCell id="ePJA7sKkPswgZLmJT1RE-2" value="Mostrar listado de esgrimistas" style="rounded=1;whiteSpace=wrap;html=1;" parent="ePJA7sKkPswgZLmJT1RE-1" vertex="1">
          <mxGeometry x="40" y="120" width="120" height="60" as="geometry" />
        </mxCell>
        <mxCell id="ePJA7sKkPswgZLmJT1RE-4" value="Mostrar detalle de esgrimista" style="rounded=1;whiteSpace=wrap;html=1;" parent="ePJA7sKkPswgZLmJT1RE-1" vertex="1">
          <mxGeometry x="40" y="220" width="120" height="60" as="geometry" />
        </mxCell>
        <mxCell id="ePJA7sKkPswgZLmJT1RE-5" value="Mostrar listado de entrenamientos IA" style="rounded=1;whiteSpace=wrap;html=1;" parent="ePJA7sKkPswgZLmJT1RE-1" vertex="1">
          <mxGeometry x="40" y="320" width="120" height="60" as="geometry" />
        </mxCell>
        <mxCell id="GGwBDlqm0n56G8IRmdx8-1" style="edgeStyle=orthogonalEdgeStyle;rounded=0;orthogonalLoop=1;jettySize=auto;html=1;entryX=0.5;entryY=0;entryDx=0;entryDy=0;" parent="ePJA7sKkPswgZLmJT1RE-1" source="ePJA7sKkPswgZLmJT1RE-6" target="18j1XGoCvIrTiXG_NGVG-71" edge="1">
          <mxGeometry relative="1" as="geometry" />
        </mxCell>
        <mxCell id="ePJA7sKkPswgZLmJT1RE-6" value="Mostrar detalle de entrenamiento" style="rounded=1;whiteSpace=wrap;html=1;" parent="ePJA7sKkPswgZLmJT1RE-1" vertex="1">
          <mxGeometry x="40" y="420" width="120" height="60" as="geometry" />
        </mxCell>
        <mxCell id="18j1XGoCvIrTiXG_NGVG-73" value="" style="group" parent="ePJA7sKkPswgZLmJT1RE-1" vertex="1" connectable="0">
          <mxGeometry x="80" y="520" width="40" height="40" as="geometry" />
        </mxCell>
        <mxCell id="18j1XGoCvIrTiXG_NGVG-71" value="" style="ellipse;whiteSpace=wrap;html=1;aspect=fixed;" parent="18j1XGoCvIrTiXG_NGVG-73" vertex="1">
          <mxGeometry width="40" height="40" as="geometry" />
        </mxCell>
        <mxCell id="18j1XGoCvIrTiXG_NGVG-72" value="" style="ellipse;whiteSpace=wrap;html=1;aspect=fixed;fillColor=#000000;" parent="18j1XGoCvIrTiXG_NGVG-73" vertex="1">
          <mxGeometry x="10" y="10" width="20" height="20" as="geometry" />
        </mxCell>
        <mxCell id="ePJA7sKkPswgZLmJT1RE-7" value="" style="edgeStyle=orthogonalEdgeStyle;rounded=0;orthogonalLoop=1;jettySize=auto;html=1;" parent="1" source="18j1XGoCvIrTiXG_NGVG-63" target="ePJA7sKkPswgZLmJT1RE-2" edge="1">
          <mxGeometry relative="1" as="geometry" />
        </mxCell>
        <mxCell id="ePJA7sKkPswgZLmJT1RE-8" value="" style="edgeStyle=orthogonalEdgeStyle;rounded=0;orthogonalLoop=1;jettySize=auto;html=1;" parent="1" source="18j1XGoCvIrTiXG_NGVG-65" target="ePJA7sKkPswgZLmJT1RE-4" edge="1">
          <mxGeometry relative="1" as="geometry" />
        </mxCell>
        <mxCell id="ePJA7sKkPswgZLmJT1RE-9" value="" style="edgeStyle=orthogonalEdgeStyle;rounded=0;orthogonalLoop=1;jettySize=auto;html=1;" parent="1" source="18j1XGoCvIrTiXG_NGVG-67" target="ePJA7sKkPswgZLmJT1RE-5" edge="1">
          <mxGeometry relative="1" as="geometry" />
        </mxCell>
        <mxCell id="ePJA7sKkPswgZLmJT1RE-10" value="" style="edgeStyle=orthogonalEdgeStyle;rounded=0;orthogonalLoop=1;jettySize=auto;html=1;" parent="1" source="18j1XGoCvIrTiXG_NGVG-69" target="ePJA7sKkPswgZLmJT1RE-6" edge="1">
          <mxGeometry relative="1" as="geometry" />
        </mxCell>
        <mxCell id="ePJA7sKkPswgZLmJT1RE-13" style="edgeStyle=orthogonalEdgeStyle;rounded=0;orthogonalLoop=1;jettySize=auto;html=1;" parent="1" source="ePJA7sKkPswgZLmJT1RE-5" target="18j1XGoCvIrTiXG_NGVG-69" edge="1">
          <mxGeometry relative="1" as="geometry">
            <Array as="points">
              <mxPoint x="1375" y="580" />
              <mxPoint x="1178" y="580" />
            </Array>
          </mxGeometry>
        </mxCell>
        <mxCell id="ePJA7sKkPswgZLmJT1RE-14" style="edgeStyle=orthogonalEdgeStyle;rounded=0;orthogonalLoop=1;jettySize=auto;html=1;" parent="1" source="ePJA7sKkPswgZLmJT1RE-4" target="18j1XGoCvIrTiXG_NGVG-67" edge="1">
          <mxGeometry relative="1" as="geometry">
            <Array as="points">
              <mxPoint x="1375" y="480" />
              <mxPoint x="1178" y="480" />
            </Array>
          </mxGeometry>
        </mxCell>
        <mxCell id="ePJA7sKkPswgZLmJT1RE-15" style="edgeStyle=orthogonalEdgeStyle;rounded=0;orthogonalLoop=1;jettySize=auto;html=1;" parent="1" source="ePJA7sKkPswgZLmJT1RE-2" target="18j1XGoCvIrTiXG_NGVG-65" edge="1">
          <mxGeometry relative="1" as="geometry">
            <Array as="points">
              <mxPoint x="1375" y="380" />
              <mxPoint x="1178" y="380" />
            </Array>
          </mxGeometry>
        </mxCell>
      </root>
    </mxGraphModel>
  </diagram>
</mxfile>
